<svg xmlns="http://www.w3.org/2000/svg" x="0px" y="0px"
width="64" height="64"
viewBox="0 0 172 172"
style=" fill:#000000;"><defs><radialGradient cx="89.13631" cy="75.47306" r="69.875" gradientUnits="userSpaceOnUse" id="color-1_119488_gr1"><stop offset="0" stop-color="#f4e9c3"></stop><stop offset="0.219" stop-color="#f8eecd"></stop><stop offset="0.644" stop-color="#fdf4dc"></stop><stop offset="1" stop-color="#fff6e1"></stop></radialGradient><radialGradient cx="87.56681" cy="91.59806" r="77.31938" gradientUnits="userSpaceOnUse" id="color-2_119488_gr2"><stop offset="0" stop-color="#f4e9c3"></stop><stop offset="0.219" stop-color="#f8eecd"></stop><stop offset="0.644" stop-color="#fdf4dc"></stop><stop offset="1" stop-color="#fff6e1"></stop></radialGradient><radialGradient cx="86" cy="86" r="86" gradientUnits="userSpaceOnUse" id="color-3_119488_gr3"><stop offset="0" stop-color="#f4e9c3"></stop><stop offset="0.219" stop-color="#f8eecd"></stop><stop offset="0.644" stop-color="#fdf4dc"></stop><stop offset="1" stop-color="#fff6e1"></stop></radialGradient><linearGradient x1="86" y1="-19.17262" x2="86" y2="110.82444" gradientUnits="userSpaceOnUse" id="color-4_119488_gr4"><stop offset="0" stop-color="#40daf2"></stop><stop offset="0.259" stop-color="#3bd3ef"></stop><stop offset="0.624" stop-color="#2ec1e8"></stop><stop offset="1" stop-color="#1ba7dd"></stop></linearGradient><linearGradient x1="86" y1="178.69188" x2="86" y2="83.12706" gradientUnits="userSpaceOnUse" id="color-5_119488_gr5"><stop offset="0" stop-color="#155cde"></stop><stop offset="0.278" stop-color="#1f7fe5"></stop><stop offset="0.569" stop-color="#279ceb"></stop><stop offset="0.82" stop-color="#2cafef"></stop><stop offset="1" stop-color="#2eb5f0"></stop></linearGradient><linearGradient x1="86" y1="-80.85075" x2="86" y2="88.38113" gradientUnits="userSpaceOnUse" id="color-6_119488_gr6"><stop offset="0" stop-color="#40daf2"></stop><stop offset="0.259" stop-color="#3bd3ef"></stop><stop offset="0.624" stop-color="#2ec1e8"></stop><stop offset="1" stop-color="#1ba7dd"></stop></linearGradient></defs><g transform=""><g fill="none" fill-rule="nonzero" stroke="none" stroke-width="1" stroke-linecap="butt" stroke-linejoin="miter" stroke-miterlimit="10" stroke-dasharray="" stroke-dashoffset="0" font-family="none" font-weight="none" font-size="none" text-anchor="none" style="mix-blend-mode: normal"><path d="M0,172v-172h172v172z" fill="#cccccc"></path><g><path d="M161.25,150.5v0c-5.93669,0 -10.75,4.81331 -10.75,10.75v0c0,5.93669 4.81331,10.75 10.75,10.75v0c5.93669,0 10.75,-4.81331 10.75,-10.75v0c0,-5.93669 -4.81331,-10.75 -10.75,-10.75z" fill="url(#color-1_119488_gr1)"></path><path d="M151.84375,0v0c-5.19494,0 -9.40625,4.21131 -9.40625,9.40625v0c0,5.19494 4.21131,9.40625 9.40625,9.40625v0c5.19494,0 9.40625,-4.21131 9.40625,-9.40625v0c0,-5.19494 -4.21131,-9.40625 -9.40625,-9.40625z" fill="url(#color-2_119488_gr2)"></path><path d="M0,116.90625v0c0,6.67844 5.41531,12.09375 12.09375,12.09375h14.78125c5.93669,0 10.75,4.81331 10.75,10.75v0c0,5.93669 -4.81331,10.75 -10.75,10.75h-2.6875c-5.93669,0 -10.75,4.81331 -10.75,10.75v0c0,5.93669 4.81331,10.75 10.75,10.75h110.1875c5.93669,0 10.75,-4.81331 10.75,-10.75v0c0,-5.93669 -4.81331,-10.75 -10.75,-10.75h-2.6875c-4.45319,0 -8.0625,-3.60931 -8.0625,-8.0625v0c0,-4.45319 3.60931,-8.0625 8.0625,-8.0625h28.21875c5.19494,0 9.40625,-4.21131 9.40625,-9.40625v0c0,-5.19494 -4.21131,-9.40625 -9.40625,-9.40625h-1.34375c-4.45319,0 -8.0625,-3.60931 -8.0625,-8.0625v0c0,-4.45319 3.60931,-8.0625 8.0625,-8.0625v0c7.42019,0 13.4375,-6.01731 13.4375,-13.4375v0c0,-7.42019 -6.01731,-13.4375 -13.4375,-13.4375h-14.78125c-5.19494,0 -9.40625,-4.21131 -9.40625,-9.40625v0c0,-5.19494 4.21131,-9.40625 9.40625,-9.40625h4.03125c5.93669,0 10.75,-4.81331 10.75,-10.75v0c0,-5.93669 -4.81331,-10.75 -10.75,-10.75h-22.84375c-3.71144,0 -6.71875,-3.00731 -6.71875,-6.71875v0c0,-3.71144 3.00731,-6.71875 6.71875,-6.71875v0c5.19494,0 9.40625,-4.21131 9.40625,-9.40625v0c0,-5.19494 -4.21131,-9.40625 -9.40625,-9.40625h-80.625c-5.19494,0 -9.40625,4.21131 -9.40625,9.40625v0c0,5.19494 4.21131,9.40625 9.40625,9.40625h1.34375c2.96969,0 5.375,2.40531 5.375,5.375v0c0,2.96969 -2.40531,5.375 -5.375,5.375h-21.5c-5.93669,0 -10.75,4.81331 -10.75,10.75v0c0,5.93669 4.81331,10.75 10.75,10.75h4.03125c3.71144,0 6.71875,3.00731 6.71875,6.71875v0c0,3.71144 -3.00731,6.71875 -6.71875,6.71875h-17.46875c-5.93669,0 -10.75,4.81331 -10.75,10.75v0c0,5.93669 4.81331,10.75 10.75,10.75h6.71875c5.19494,0 9.40625,4.21131 9.40625,9.40625v0c0,5.19494 -4.21131,9.40625 -9.40625,9.40625h-5.375c-6.67844,0 -12.09375,5.41531 -12.09375,12.09375z" fill="url(#color-3_119488_gr3)"></path><path d="M86,112.875v0c-11.825,0 -21.5,-9.675 -21.5,-21.5v-48.375c0,-11.825 9.675,-21.5 21.5,-21.5v0c11.825,0 21.5,9.675 21.5,21.5v48.375c0,11.825 -9.675,21.5 -21.5,21.5z" fill="url(#color-4_119488_gr4)"></path><path d="M126.3125,94.0625v-1.34375c0,-3.71144 -3.00731,-6.71875 -6.71875,-6.71875c-3.71144,0 -6.71875,3.00731 -6.71875,6.71875v1.34375c0,14.81888 -12.05612,26.875 -26.875,26.875c-14.81888,0 -26.875,-12.05612 -26.875,-26.875v-1.34375c0,-3.71144 -3.00731,-6.71875 -6.71875,-6.71875c-3.71144,0 -6.71875,3.00731 -6.71875,6.71875v1.34375c0,19.46825 13.87019,35.7545 32.25,39.50088v11.56162h-14.78125c-3.69531,0 -6.71875,3.02344 -6.71875,6.71875c0,3.69531 3.02344,6.71875 6.71875,6.71875h45.6875c3.69531,0 6.71875,-3.02344 6.71875,-6.71875c0,-3.69531 -3.02344,-6.71875 -6.71875,-6.71875h-14.78125v-11.56162c18.37981,-3.74638 32.25,-20.03263 32.25,-39.50088z" fill="url(#color-5_119488_gr5)"></path><path d="M107.5,91.375v-23.94025c-1.56144,0.55631 -2.6875,2.03175 -2.6875,3.784v4.03125c0,1.4835 -1.204,2.6875 -2.6875,2.6875c-1.4835,0 -2.6875,-1.204 -2.6875,-2.6875v-10.42212c0,-2.67944 -1.81406,-5.17881 -4.45588,-5.62494c-3.35669,-0.56437 -6.29412,2.03981 -6.29412,5.29706v18.8125c0,1.4835 -1.204,2.6875 -2.6875,2.6875c-1.4835,0 -2.6875,-1.204 -2.6875,-2.6875v-6.71875c0,-2.22525 -1.806,-4.03125 -4.03125,-4.03125c-2.22525,0 -4.03125,1.806 -4.03125,4.03125v12.09375c0,1.4835 -1.204,2.6875 -2.6875,2.6875c-1.4835,0 -2.6875,-1.204 -2.6875,-2.6875v-21.5c0,-2.22525 -1.806,-4.03125 -4.03125,-4.03125c-0.473,0 -0.92181,0.09675 -1.34375,0.24725v27.9715c0,11.825 9.675,21.5 21.5,21.5c11.825,0 21.5,-9.675 21.5,-21.5z" fill="url(#color-6_119488_gr6)"></path></g><path d="" fill="none"></path></g></g></svg>